<?xml version="1.0" encoding="UTF-8" standalone="no"?>
<!DOCTYPE svg PUBLIC "-//W3C//DTD SVG 1.1//EN" "http://www.w3.org/Graphics/SVG/1.1/DTD/svg11.dtd">
<svg width="100%" height="100%" viewBox="0 0 1125 1125" version="1.1" xmlns="http://www.w3.org/2000/svg" xmlns:xlink="http://www.w3.org/1999/xlink" xml:space="preserve" xmlns:serif="http://www.serif.com/" style="fill-rule:evenodd;clip-rule:evenodd;stroke-linejoin:round;stroke-miterlimit:2;">
    <g id="Layer-1" serif:id="Layer 1" transform="matrix(4.16667,0,0,4.16667,0,0)">
        <g transform="matrix(-4.76826,90.9844,90.9844,4.76826,127.582,212.773)">
            <path d="M-0.488,0.566C-0.191,0.563 0.057,0.328 0.073,0.027C0.088,-0.274 -0.133,-0.532 -0.429,-0.567L-0.408,-0.97L-0.39,-0.969L-0.358,-0.845C-0.336,-0.759 -0.176,-0.71 -0.111,-0.765L-0.012,-0.846L0.079,-0.786L0.045,-0.663C0.021,-0.58 0.133,-0.456 0.219,-0.47L0.345,-0.492L0.394,-0.394L0.303,-0.305C0.242,-0.245 0.274,-0.082 0.357,-0.051L0.477,-0.006L0.471,0.103L0.348,0.135C0.261,0.157 0.213,0.316 0.267,0.382L0.349,0.48L0.289,0.572L0.166,0.538C0.082,0.514 -0.042,0.626 -0.027,0.712L-0.006,0.837L-0.103,0.887L-0.192,0.796C-0.252,0.735 -0.416,0.767 -0.447,0.85L-0.491,0.97L-0.509,0.969L-0.488,0.566Z" style="fill:url(#_Linear1);fill-rule:nonzero;"/>
        </g>
        <g transform="matrix(1,0,0,1,170.494,198.41)">
            <path d="M0,47.862L-0.876,48.367L-9.422,40.501C-15.153,35.22 -29.896,38.884 -32.314,46.623L-35.783,57.722L-45.757,57.722L-49.226,46.623C-51.644,38.884 -66.379,35.22 -72.114,40.501L-80.661,48.367L-89.295,43.383L-86.749,32.028C-85.012,24.283 -95.75,13.548 -103.492,15.285L-114.847,17.831L-119.834,9.197L-111.965,0.65C-109.729,-1.778 -109.096,-5.819 -109.698,-9.86C-101.886,-9.476 -94.232,-8.483 -86.786,-6.93C-78.176,9.716 -60.803,21.091 -40.77,21.091C-36.51,21.091 -32.368,20.579 -28.408,19.609C-17.706,27.691 -8.143,37.208 0,47.862" style="fill:rgb(57,127,174);"/>
        </g>
        <g transform="matrix(1,0,0,1,206.836,247.182)">
            <path d="M0,-36.187L-3.031,-30.941L-14.386,-33.487C-22.125,-35.224 -32.867,-24.489 -31.129,-16.744L-28.583,-5.388L-37.218,-0.405L-45.764,-8.271C-51.495,-13.551 -66.238,-9.887 -68.656,-2.149L-72.125,8.951L-82.099,8.951L-85.567,-2.149C-87.985,-9.887 -102.721,-13.551 -108.456,-8.271L-117.002,-0.405L-125.637,-5.388L-123.091,-16.744C-122.414,-19.76 -123.63,-23.229 -125.822,-26.24C-119.286,-30.004 -112.426,-33.278 -105.308,-36.026C-97.195,-30.746 -87.51,-27.681 -77.112,-27.681C-61.672,-27.681 -47.818,-34.429 -38.336,-45.138C-24.953,-43.865 -12.097,-40.8 0,-36.187" style="fill:rgb(43,106,168);"/>
        </g>
        <g transform="matrix(1,0,0,1,170.494,221.016)">
            <path d="M0,25.256L-0.876,25.761L-9.422,17.895C-15.153,12.614 -29.896,16.278 -32.314,24.017L-35.783,35.116L-45.757,35.116L-49.226,24.017C-51.644,16.278 -66.379,12.614 -72.114,17.895L-80.661,25.761L-89.295,20.777L-86.749,9.422C-86.072,6.405 -87.288,2.937 -89.48,-0.074C-82.944,-3.839 -76.084,-7.112 -68.966,-9.86C-60.854,-4.58 -51.168,-1.515 -40.77,-1.515C-36.51,-1.515 -32.368,-2.027 -28.408,-2.997C-17.706,5.085 -8.143,14.602 0,25.256" style="fill:rgb(98,168,213);"/>
        </g>
        <g transform="matrix(47.8472,-68.3329,-68.3329,-47.8472,139.793,195.467)">
            <path d="M1.048,0.455C0.969,0.461 0.887,0.436 0.805,0.445C0.864,0.214 0.786,-0.039 0.592,-0.195L0.844,-0.556L0.86,-0.544L0.818,-0.411C0.788,-0.319 0.908,-0.182 1.001,-0.194L1.139,-0.212L1.189,-0.104L1.086,-0.01C1.016,0.054 1.057,0.215 1.135,0.269C1.205,0.318 1.367,0.396 1.513,0.555C1.349,0.467 1.218,0.442 1.048,0.455Z" style="fill:url(#_Linear2);fill-rule:nonzero;"/>
        </g>
        <g transform="matrix(46.8422,-66.8977,-66.8977,-46.8422,132.122,189.025)">
            <path d="M0.524,0.426C0.296,0.469 0.128,0.442 0.009,0.379C-0.418,0.154 -0.233,-0.4 0.196,-0.403C0.505,-0.404 0.716,-0.161 0.771,0.131C0.771,0.131 0.684,-0.089 0.477,-0.209C0.067,-0.447 -0.134,0.203 0.435,0.234C0.718,0.249 0.997,0.098 1.27,0.329C1.27,0.329 1.103,0.317 0.524,0.426Z" style="fill:url(#_Linear3);fill-rule:nonzero;"/>
        </g>
        <g transform="matrix(-8.62056,77.5849,77.5849,8.62056,140.86,121.04)">
            <path d="M0.183,-0.143C0.371,-0.297 0.539,-0.357 0.68,-0.359C1.125,-0.366 1.261,0.102 1.018,0.361C0.952,0.369 0.885,0.37 0.816,0.363C0.798,0.361 0.781,0.358 0.763,0.355C0.971,0.193 0.794,-0.219 0.361,-0.012C0.321,0.007 0.283,0.03 0.246,0.054C0.205,0.004 0.169,-0.05 0.14,-0.108C0.154,-0.12 0.168,-0.131 0.183,-0.143Z" style="fill:url(#_Linear4);fill-rule:nonzero;"/>
        </g>
        <g transform="matrix(1,0,0,1,-70.2722,-23.4241)">
            <g opacity="0.41">
                <g transform="matrix(-51.1479,8.04622,8.04622,51.1479,297.022,166.265)">
                    <path d="M0.315,-0.385L0.298,-0.34L0.473,-0.201C0.591,-0.107 0.566,0.185 0.425,0.254L0.224,0.354L0.229,0.385L0.93,0.274C0.912,0.086 0.949,-0.097 1.028,-0.257C0.801,-0.334 0.561,-0.378 0.315,-0.385Z" style="fill:url(#_Linear5);"/>
                </g>
            </g>
        </g>
        <g transform="matrix(4.88441,-25.5737,-25.5737,-4.88441,148.708,196.089)">
            <path d="M2.149,-0.216C1.924,-0.353 1.609,-0.497 1.244,-0.535C0.116,-0.651 -0,0.55 0.745,0.845C0.394,1.021 0.019,1.155 -0.369,1.242C-0.827,0.634 -0.649,-0.345 0.191,-0.727C0.924,-1.062 1.68,-0.824 2.22,-0.296C2.197,-0.269 2.173,-0.242 2.149,-0.216Z" style="fill:url(#_Linear6);fill-rule:nonzero;"/>
        </g>
        <g transform="matrix(1,0,0,1,-70.2722,-23.4241)">
            <g opacity="0.75">
                <g transform="matrix(107.473,22.4143,22.4143,-107.473,149.786,207.297)">
                    <path d="M0.733,0.158C0.736,0.146 0.739,0.134 0.742,0.121C0.752,0.073 0.756,0.025 0.755,-0.022C0.647,-0.144 0.468,-0.161 0.347,-0.073C0.366,0.02 0.396,0.109 0.436,0.193C0.491,0.062 0.662,0.047 0.733,0.158Z" style="fill:url(#_Linear7);"/>
                </g>
            </g>
        </g>
        <g transform="matrix(73.8298,-105.44,-105.44,-73.8298,90.5053,171.731)">
            <path d="M1.078,0.234C0.976,0.126 0.899,-0.084 0.556,0.187C0.304,0.387 0.098,0.338 0.006,0.298C-0.007,0.292 -0.019,0.286 -0.03,0.28C-0.054,0.277 -0.076,0.281 -0.092,0.294L-0.164,0.349L-0.172,0.343L-0.098,0.238L-0.098,0.238L0.014,0.078C-0.021,0.05 -0.071,0.006 -0.113,-0.055C-0.223,-0.209 -0.11,-0.413 -0.113,-0.401C-0.197,-0.084 0.179,0.129 0.454,0.032C0.695,-0.053 0.969,-0.134 1.067,0.078C1.166,0.29 1.287,0.333 1.287,0.333C1.287,0.333 1.18,0.341 1.078,0.234Z" style="fill:url(#_Linear8);fill-rule:nonzero;"/>
        </g>
        <g transform="matrix(1,0,0,1,-70.2722,-23.4241)">
            <g opacity="0.6">
                <g transform="matrix(0,-98.2769,-98.2769,0,155.332,227.822)">
                    <path d="M0.563,0.26C0.649,0.242 0.794,0.19 0.916,0.036C0.937,-0.033 0.949,-0.107 0.949,-0.183C0.949,-0.275 0.932,-0.362 0.902,-0.442C0.882,-0.415 0.863,-0.388 0.844,-0.362C0.622,-0.051 0.058,0.003 -0.09,-0.4C-0.095,-0.416 -0.063,-0.112 0.17,-0.029C0.261,0.004 0.347,0.014 0.406,0.018L0.406,0.274L0.406,0.274L0.406,0.442L0.419,0.442L0.454,0.329C0.462,0.304 0.483,0.283 0.51,0.268C0.527,0.266 0.545,0.263 0.563,0.26Z" style="fill:url(#_Linear9);"/>
                </g>
            </g>
        </g>
        <g transform="matrix(1,0,0,1,136.53,184.833)">
            <path d="M0,-64.783L-25.92,-32.455L0.707,-0.71L-31.621,-26.63L-63.362,0L-37.447,-32.327L-64.073,-64.069L-31.746,-38.153L0,-64.783Z" style="fill:white;"/>
        </g>
    </g>
    <defs>
        <linearGradient id="_Linear1" x1="0" y1="0" x2="1" y2="0" gradientUnits="userSpaceOnUse" gradientTransform="matrix(1,-6.93889e-18,-6.93889e-18,-1,0,1.54514e-05)"><stop offset="0" style="stop-color:rgb(0,73,129);stop-opacity:1"/><stop offset="1" style="stop-color:rgb(0,174,239);stop-opacity:1"/></linearGradient>
        <linearGradient id="_Linear2" x1="0" y1="0" x2="1" y2="0" gradientUnits="userSpaceOnUse" gradientTransform="matrix(1,0,0,-1,0,-1.73423e-05)"><stop offset="0" style="stop-color:rgb(153,77,17);stop-opacity:1"/><stop offset="0.46" style="stop-color:rgb(255,203,3);stop-opacity:1"/><stop offset="1" style="stop-color:rgb(153,77,17);stop-opacity:1"/></linearGradient>
        <linearGradient id="_Linear3" x1="0" y1="0" x2="1" y2="0" gradientUnits="userSpaceOnUse" gradientTransform="matrix(1,5.55112e-17,5.55112e-17,-1,0,0.0222659)"><stop offset="0" style="stop-color:rgb(153,77,17);stop-opacity:1"/><stop offset="0.46" style="stop-color:rgb(255,203,3);stop-opacity:1"/><stop offset="1" style="stop-color:rgb(153,77,17);stop-opacity:1"/></linearGradient>
        <linearGradient id="_Linear4" x1="0" y1="0" x2="1" y2="0" gradientUnits="userSpaceOnUse" gradientTransform="matrix(1,-1.38778e-17,-1.38778e-17,-1,0,0.00434314)"><stop offset="0" style="stop-color:rgb(255,242,0);stop-opacity:1"/><stop offset="1" style="stop-color:rgb(153,77,17);stop-opacity:1"/></linearGradient>
        <linearGradient id="_Linear5" x1="0" y1="0" x2="1" y2="0" gradientUnits="userSpaceOnUse" gradientTransform="matrix(1,0,0,-1,0,1.01938e-05)"><stop offset="0" style="stop-color:rgb(167,110,41);stop-opacity:1"/><stop offset="1" style="stop-color:rgb(211,167,42);stop-opacity:1"/></linearGradient>
        <linearGradient id="_Linear6" x1="0" y1="0" x2="1" y2="0" gradientUnits="userSpaceOnUse" gradientTransform="matrix(1,0,0,-1,0,0.179862)"><stop offset="0" style="stop-color:rgb(167,110,41);stop-opacity:1"/><stop offset="1" style="stop-color:rgb(227,187,34);stop-opacity:1"/></linearGradient>
        <linearGradient id="_Linear7" x1="0" y1="0" x2="1" y2="0" gradientUnits="userSpaceOnUse" gradientTransform="matrix(1,-2.77556e-17,-2.77556e-17,-1,0,0.0324419)"><stop offset="0" style="stop-color:rgb(153,77,17);stop-opacity:1"/><stop offset="1" style="stop-color:rgb(255,242,0);stop-opacity:1"/></linearGradient>
        <linearGradient id="_Linear8" x1="0" y1="0" x2="1" y2="0" gradientUnits="userSpaceOnUse" gradientTransform="matrix(1,0,-5.55112e-17,-1,0,-0.0260661)"><stop offset="0" style="stop-color:rgb(153,77,17);stop-opacity:1"/><stop offset="0.46" style="stop-color:rgb(255,203,3);stop-opacity:1"/><stop offset="1" style="stop-color:rgb(153,77,17);stop-opacity:1"/></linearGradient>
        <linearGradient id="_Linear9" x1="0" y1="0" x2="1" y2="0" gradientUnits="userSpaceOnUse" gradientTransform="matrix(1,0,0,-1,0,-3.96838e-07)"><stop offset="0" style="stop-color:rgb(149,84,35);stop-opacity:1"/><stop offset="0.59" style="stop-color:rgb(237,215,12);stop-opacity:1"/><stop offset="0.61" style="stop-color:rgb(245,229,3);stop-opacity:1"/><stop offset="1" style="stop-color:rgb(245,229,3);stop-opacity:1"/></linearGradient>
    </defs>
</svg>
