<?xml version="1.0" encoding="UTF-8" standalone="no"?>
<!DOCTYPE svg PUBLIC "-//W3C//DTD SVG 1.1//EN" "http://www.w3.org/Graphics/SVG/1.1/DTD/svg11.dtd">
<svg width="100%" height="100%" viewBox="0 0 1800 881" version="1.1" xmlns="http://www.w3.org/2000/svg" xmlns:xlink="http://www.w3.org/1999/xlink" xml:space="preserve" xmlns:serif="http://www.serif.com/" style="fill-rule:evenodd;clip-rule:evenodd;stroke-linejoin:round;stroke-miterlimit:2;">
    <g id="Layer-1" serif:id="Layer 1" transform="matrix(4.16667,0,0,4.16667,0,0)">
        <g transform="matrix(-3.56003,67.9298,67.9298,3.56003,79.2283,164.654)">
            <path d="M-0.488,0.566C-0.191,0.563 0.057,0.329 0.073,0.027C0.088,-0.274 -0.133,-0.532 -0.429,-0.567L-0.408,-0.97L-0.39,-0.969L-0.358,-0.845C-0.336,-0.759 -0.176,-0.71 -0.111,-0.765L-0.012,-0.846L0.079,-0.786L0.045,-0.663C0.021,-0.58 0.133,-0.456 0.219,-0.47L0.345,-0.492L0.394,-0.394L0.303,-0.305C0.242,-0.245 0.274,-0.082 0.357,-0.051L0.477,-0.006L0.471,0.103L0.348,0.135C0.261,0.157 0.213,0.316 0.267,0.382L0.349,0.48L0.289,0.572L0.166,0.538C0.082,0.514 -0.042,0.626 -0.027,0.712L-0.006,0.837L-0.103,0.887L-0.192,0.796C-0.252,0.735 -0.416,0.766 -0.447,0.85L-0.491,0.97L-0.509,0.969L-0.488,0.566Z" style="fill:url(#_Linear1);fill-rule:nonzero;"/>
        </g>
        <g transform="matrix(1,0,0,1,111.265,153.927)">
            <path d="M0,35.74L-0.654,36.118L-7.033,30.241C-11.315,26.299 -22.319,29.037 -24.124,34.814L-26.714,43.099L-34.16,43.099L-36.75,34.814C-38.555,29.034 -49.558,26.299 -53.84,30.241L-60.22,36.118L-66.667,32.394L-64.766,23.918C-63.47,18.135 -71.486,10.117 -77.268,11.416L-85.744,13.316L-89.468,6.869L-83.592,0.488C-81.922,-1.325 -81.45,-4.342 -81.9,-7.359C-76.066,-7.072 -70.354,-6.33 -64.794,-5.171C-58.366,7.257 -45.395,15.751 -30.437,15.751C-27.256,15.751 -24.167,15.367 -21.211,14.643C-13.219,20.679 -6.079,27.783 0,35.74" style="fill:rgb(57,127,174);"/>
        </g>
        <g transform="matrix(1,0,0,1,138.399,190.343)">
            <path d="M0,-27.018L-2.262,-23.098L-10.738,-25C-16.52,-26.299 -24.541,-18.282 -23.243,-12.498L-21.341,-4.022L-27.788,-0.298L-34.167,-6.175C-38.449,-10.118 -49.454,-7.379 -51.258,-1.602L-53.849,6.683L-61.294,6.683L-63.884,-1.602C-65.689,-7.382 -76.692,-10.118 -80.974,-6.175L-87.354,-0.298L-93.801,-4.022L-91.9,-12.498C-91.395,-14.75 -92.302,-17.34 -93.94,-19.588C-89.059,-22.401 -83.938,-24.846 -78.622,-26.894C-72.565,-22.955 -65.335,-20.665 -57.571,-20.665C-46.046,-20.665 -35.703,-25.705 -28.62,-33.701C-18.63,-32.751 -9.03,-30.462 0,-27.018" style="fill:rgb(43,106,168);"/>
        </g>
        <g transform="matrix(1,0,0,1,111.265,170.808)">
            <path d="M0,18.859L-0.654,19.237L-7.033,13.36C-11.315,9.418 -22.319,12.156 -24.124,17.933L-26.714,26.218L-34.16,26.218L-36.75,17.933C-38.555,12.153 -49.558,9.418 -53.84,13.36L-60.22,19.237L-66.667,15.513L-64.766,7.037C-64.26,4.785 -65.168,2.195 -66.806,-0.053C-61.924,-2.866 -56.804,-5.311 -51.488,-7.359C-45.431,-3.419 -38.201,-1.13 -30.437,-1.13C-27.256,-1.13 -24.167,-1.514 -21.211,-2.238C-13.219,3.798 -6.079,10.902 0,18.859" style="fill:rgb(98,168,213);"/>
        </g>
        <g transform="matrix(35.7232,-51.018,-51.018,-35.7232,88.344,151.731)">
            <path d="M1.048,0.455C0.969,0.461 0.887,0.436 0.805,0.445C0.864,0.214 0.786,-0.039 0.592,-0.195L0.844,-0.556L0.86,-0.544L0.818,-0.412C0.788,-0.319 0.908,-0.182 1.001,-0.194L1.139,-0.212L1.189,-0.104L1.086,-0.01C1.016,0.054 1.057,0.215 1.135,0.269C1.205,0.318 1.367,0.396 1.513,0.556C1.349,0.467 1.218,0.442 1.048,0.455Z" style="fill:url(#_Linear2);fill-rule:nonzero;"/>
        </g>
        <g transform="matrix(34.9735,-49.9474,-49.9474,-34.9735,82.6143,146.923)">
            <path d="M0.524,0.426C0.296,0.469 0.128,0.442 0.009,0.379C-0.418,0.154 -0.233,-0.4 0.196,-0.403C0.505,-0.404 0.716,-0.161 0.771,0.131C0.771,0.131 0.684,-0.089 0.477,-0.209C0.067,-0.447 -0.134,0.203 0.435,0.234C0.718,0.249 0.997,0.098 1.27,0.329C1.27,0.329 1.103,0.317 0.524,0.426Z" style="fill:url(#_Linear3);fill-rule:nonzero;"/>
        </g>
        <g transform="matrix(-6.43646,57.928,57.928,6.43646,89.1421,96.1626)">
            <path d="M0.183,-0.143C0.371,-0.297 0.539,-0.357 0.68,-0.359C1.125,-0.366 1.261,0.102 1.018,0.361C0.952,0.369 0.885,0.37 0.816,0.363C0.798,0.361 0.781,0.358 0.763,0.355C0.971,0.193 0.794,-0.219 0.361,-0.012C0.321,0.007 0.283,0.03 0.246,0.054C0.205,0.004 0.169,-0.05 0.14,-0.108C0.154,-0.12 0.168,-0.131 0.183,-0.143Z" style="fill:url(#_Linear4);fill-rule:nonzero;"/>
        </g>
        <g opacity="0.41">
            <g transform="matrix(-38.1899,6.00777,6.00777,38.1899,153.267,112.441)">
                <path d="M0.315,-0.385L0.298,-0.34L0.473,-0.201C0.591,-0.107 0.566,0.185 0.425,0.254L0.224,0.354L0.229,0.385L0.93,0.275C0.912,0.086 0.949,-0.097 1.028,-0.257C0.801,-0.334 0.561,-0.378 0.315,-0.385Z" style="fill:url(#_Linear5);"/>
            </g>
        </g>
        <g transform="matrix(3.64684,-19.094,-19.094,-3.64684,94.9989,152.198)">
            <path d="M2.149,-0.216C1.924,-0.353 1.609,-0.497 1.244,-0.535C0.116,-0.651 -0,0.55 0.745,0.845C0.394,1.021 0.02,1.155 -0.369,1.242C-0.827,0.634 -0.649,-0.345 0.191,-0.728C0.924,-1.062 1.68,-0.824 2.22,-0.296C2.197,-0.269 2.173,-0.242 2.149,-0.216Z" style="fill:url(#_Linear6);fill-rule:nonzero;"/>
        </g>
        <g opacity="0.75">
            <g transform="matrix(80.2382,16.7343,16.7343,-80.2382,43.34,143.079)">
                <path d="M0.733,0.158C0.736,0.146 0.739,0.134 0.742,0.121C0.752,0.073 0.756,0.025 0.755,-0.022C0.647,-0.144 0.468,-0.161 0.347,-0.073C0.366,0.02 0.396,0.109 0.436,0.193C0.491,0.062 0.662,0.047 0.733,0.158Z" style="fill:url(#_Linear7);"/>
            </g>
        </g>
        <g transform="matrix(55.1225,-78.7231,-78.7231,-55.1225,51.5472,134.012)">
            <path d="M1.078,0.234C0.976,0.126 0.899,-0.084 0.556,0.188C0.304,0.387 0.098,0.338 0.006,0.298C-0.007,0.292 -0.019,0.286 -0.03,0.28C-0.054,0.277 -0.076,0.281 -0.092,0.294L-0.164,0.349L-0.172,0.343L-0.098,0.238L-0.098,0.238L0.014,0.078C-0.021,0.05 -0.071,0.006 -0.113,-0.055C-0.223,-0.209 -0.11,-0.413 -0.113,-0.401C-0.197,-0.084 0.179,0.129 0.454,0.032C0.695,-0.053 0.969,-0.134 1.067,0.078C1.166,0.29 1.287,0.333 1.287,0.333C1.287,0.333 1.18,0.341 1.078,0.234Z" style="fill:url(#_Linear8);fill-rule:nonzero;"/>
        </g>
        <g opacity="0.6">
            <g transform="matrix(0,-73.3775,-73.3775,0,47.4815,158.401)">
                <path d="M0.563,0.26C0.649,0.242 0.794,0.19 0.916,0.036C0.937,-0.033 0.949,-0.107 0.949,-0.183C0.949,-0.275 0.932,-0.362 0.902,-0.442C0.882,-0.415 0.863,-0.388 0.844,-0.362C0.622,-0.051 0.058,0.003 -0.09,-0.4C-0.095,-0.416 -0.063,-0.112 0.17,-0.029C0.261,0.004 0.347,0.014 0.406,0.018L0.406,0.274L0.406,0.274L0.406,0.442L0.419,0.442L0.454,0.329C0.462,0.304 0.483,0.283 0.51,0.268C0.527,0.266 0.545,0.263 0.563,0.26Z" style="fill:url(#_Linear9);"/>
            </g>
        </g>
        <g transform="matrix(1,0,0,1,85.9063,143.792)">
            <path d="M0,-48.367L-19.35,-24.231L0.531,-0.53L-23.605,-19.882L-47.305,0L-27.955,-24.137L-47.836,-47.835L-23.7,-28.485L0,-48.367Z" style="fill:white;"/>
        </g>
        <g transform="matrix(38.5788,-55.0963,-55.0963,-38.5788,179.832,102.285)">
            <path d="M-0.069,0.391L-0.419,0.146C-0.48,0.103 -0.489,0.051 -0.447,-0.01L-0.18,-0.391L-0.073,-0.316L-0.308,0.019L0.027,0.254L-0.069,0.391Z" style="fill:url(#_Linear10);fill-rule:nonzero;"/>
        </g>
        <g transform="matrix(38.5789,-55.0963,-55.0963,-38.5788,211.619,124.545)">
            <path d="M0.593,0.023L0.303,-0.18C0.273,-0.201 0.243,-0.191 0.215,-0.151L0.119,-0.014C0.091,0.027 0.092,0.058 0.122,0.079L0.411,0.282L0.315,0.419L-0.005,0.195C-0.086,0.138 -0.095,0.064 -0.031,-0.027L0.151,-0.287C0.215,-0.378 0.288,-0.395 0.369,-0.338L0.689,-0.114L0.593,0.023Z" style="fill:url(#_Linear11);fill-rule:nonzero;"/>
        </g>
        <g transform="matrix(38.5781,-55.0952,-55.0952,-38.5781,245.672,148.388)">
            <path d="M0.742,0.428L0.3,0.118L0.595,-0.302C0.655,-0.388 0.72,-0.406 0.791,-0.356L0.837,-0.324C0.877,-0.295 0.897,-0.259 0.896,-0.214C0.913,-0.218 0.926,-0.216 0.937,-0.208L0.983,-0.176C1.064,-0.119 1.073,-0.045 1.009,0.047L0.742,0.428ZM0.732,0.216L0.86,0.033C0.888,-0.008 0.892,-0.035 0.872,-0.049C0.852,-0.064 0.827,-0.05 0.799,-0.01L0.681,0.158L0.607,0.037L0.713,-0.115C0.742,-0.156 0.746,-0.183 0.725,-0.197C0.705,-0.211 0.681,-0.198 0.652,-0.158L0.503,0.056L0.732,0.216Z" style="fill:url(#_Linear12);fill-rule:nonzero;"/>
        </g>
        <g transform="matrix(38.5784,-55.0956,-55.0956,-38.5784,278.216,171.176)">
            <path d="M1.244,0.302C1.201,0.363 1.149,0.372 1.088,0.329L0.829,0.148C0.768,0.105 0.759,0.054 0.802,-0.007L1.069,-0.388L1.175,-0.314L0.94,0.022L1.169,0.182L1.404,-0.154L1.511,-0.079L1.244,0.302ZM1.119,0.124L1.044,0.003L1.215,-0.241L1.29,-0.12L1.119,0.124Z" style="fill:url(#_Linear13);fill-rule:nonzero;"/>
        </g>
        <g transform="matrix(0,-72.8986,-72.8986,0,175.034,165.971)">
            <path d="M0.34,0.163C0.34,0.232 0.306,0.266 0.237,0.266L-0.158,0.266L-0.158,0.112L0.22,0.112L0.22,-0.266L0.34,-0.266L0.34,0.163ZM0.151,0.094L0.031,0.043L0.031,-0.232L0.151,-0.18L0.151,0.094Z" style="fill:url(#_Linear14);fill-rule:nonzero;"/>
        </g>
        <g transform="matrix(72.8986,0,0,-72.8986,199.677,159.335)">
            <rect x="0.014" y="-0.249" width="0.154" height="0.498" style="fill:url(#_Linear15);"/>
        </g>
        <g transform="matrix(0,-72.8986,-72.8986,0,242.611,165.971)">
            <path d="M0.34,-0.18L-0.003,-0.18L0.289,0.077C0.323,0.112 0.34,0.152 0.34,0.197L0.34,0.335L-0.158,0.335L-0.158,0.18L0.186,0.18L-0.106,-0.077C-0.141,-0.112 -0.158,-0.152 -0.158,-0.197L-0.158,-0.335L0.34,-0.335L0.34,-0.18Z" style="fill:url(#_Linear16);fill-rule:nonzero;"/>
        </g>
        <g transform="matrix(0,-72.8986,-72.8986,0,297.046,165.971)">
            <path d="M0.34,0.326L-0.158,0.326L-0.158,0.172L0.22,0.172L0.22,-0.103C0.22,-0.149 0.203,-0.172 0.168,-0.172L0.014,-0.172C-0.021,-0.172 -0.038,-0.149 -0.038,-0.103L-0.038,0.154L-0.158,0.103L-0.158,-0.172C-0.158,-0.275 -0.112,-0.326 -0.021,-0.326L0.203,-0.326C0.294,-0.326 0.34,-0.275 0.34,-0.172L0.34,0.326Z" style="fill:url(#_Linear17);fill-rule:nonzero;"/>
        </g>
        <g transform="matrix(0,-72.8986,-72.8986,0,346.483,165.971)">
            <path d="M0.34,0.163C0.34,0.232 0.306,0.266 0.237,0.266L-0.055,0.266C-0.124,0.266 -0.158,0.232 -0.158,0.163L-0.158,-0.266L-0.038,-0.266L-0.038,0.112L0.22,0.112L0.22,-0.266L0.34,-0.266L0.34,0.163ZM0.151,0.094L0.031,0.043L0.031,-0.232L0.151,-0.18L0.151,0.094Z" style="fill:url(#_Linear18);fill-rule:nonzero;"/>
        </g>
        <g transform="matrix(0,-72.8986,-72.8986,0,394.66,165.971)">
            <path d="M0.34,0.309L-0.158,0.309L-0.158,0.155L0.22,0.155L0.22,-0.086C0.22,-0.132 0.203,-0.154 0.168,-0.154L0.151,-0.154C0.117,-0.154 0.1,-0.132 0.1,-0.086L0.1,0.137L-0.021,0.086L-0.021,-0.086C-0.021,-0.132 -0.038,-0.154 -0.072,-0.154L-0.158,-0.154L-0.158,-0.309L-0.038,-0.309C-0.003,-0.309 0.02,-0.297 0.031,-0.274C0.042,-0.297 0.065,-0.309 0.1,-0.309L0.203,-0.309C0.294,-0.309 0.34,-0.258 0.34,-0.154L0.34,0.309Z" style="fill:url(#_Linear19);fill-rule:nonzero;"/>
        </g>
    </g>
    <defs>
        <linearGradient id="_Linear1" x1="0" y1="0" x2="1" y2="0" gradientUnits="userSpaceOnUse" gradientTransform="matrix(1,0,0,-1,0,2.54173e-05)"><stop offset="0" style="stop-color:rgb(0,73,129);stop-opacity:1"/><stop offset="1" style="stop-color:rgb(0,174,239);stop-opacity:1"/></linearGradient>
        <linearGradient id="_Linear2" x1="0" y1="0" x2="1" y2="0" gradientUnits="userSpaceOnUse" gradientTransform="matrix(1,0,0,-1,0,-2.38059e-05)"><stop offset="0" style="stop-color:rgb(153,77,17);stop-opacity:1"/><stop offset="0.46" style="stop-color:rgb(255,203,3);stop-opacity:1"/><stop offset="1" style="stop-color:rgb(153,77,17);stop-opacity:1"/></linearGradient>
        <linearGradient id="_Linear3" x1="0" y1="0" x2="1" y2="0" gradientUnits="userSpaceOnUse" gradientTransform="matrix(1,0,0,-1,0,0.022232)"><stop offset="0" style="stop-color:rgb(153,77,17);stop-opacity:1"/><stop offset="0.46" style="stop-color:rgb(255,203,3);stop-opacity:1"/><stop offset="1" style="stop-color:rgb(153,77,17);stop-opacity:1"/></linearGradient>
        <linearGradient id="_Linear4" x1="0" y1="0" x2="1" y2="0" gradientUnits="userSpaceOnUse" gradientTransform="matrix(1,-1.38778e-17,-1.38778e-17,-1,0,0.00432374)"><stop offset="0" style="stop-color:rgb(255,242,0);stop-opacity:1"/><stop offset="1" style="stop-color:rgb(153,77,17);stop-opacity:1"/></linearGradient>
        <linearGradient id="_Linear5" x1="0" y1="0" x2="1" y2="0" gradientUnits="userSpaceOnUse" gradientTransform="matrix(1,-2.77556e-17,-2.77556e-17,-1,0,1.90314e-05)"><stop offset="0" style="stop-color:rgb(167,110,41);stop-opacity:1"/><stop offset="1" style="stop-color:rgb(211,167,42);stop-opacity:1"/></linearGradient>
        <linearGradient id="_Linear6" x1="0" y1="0" x2="1" y2="0" gradientUnits="userSpaceOnUse" gradientTransform="matrix(1,2.77556e-17,2.77556e-17,-1,0,0.179794)"><stop offset="0" style="stop-color:rgb(167,110,41);stop-opacity:1"/><stop offset="1" style="stop-color:rgb(227,187,34);stop-opacity:1"/></linearGradient>
        <linearGradient id="_Linear7" x1="0" y1="0" x2="1" y2="0" gradientUnits="userSpaceOnUse" gradientTransform="matrix(1,-2.77556e-17,-2.77556e-17,-1,0,0.0324669)"><stop offset="0" style="stop-color:rgb(153,77,17);stop-opacity:1"/><stop offset="1" style="stop-color:rgb(255,242,0);stop-opacity:1"/></linearGradient>
        <linearGradient id="_Linear8" x1="0" y1="0" x2="1" y2="0" gradientUnits="userSpaceOnUse" gradientTransform="matrix(1,0,0,-1,0,-0.0260594)"><stop offset="0" style="stop-color:rgb(153,77,17);stop-opacity:1"/><stop offset="0.46" style="stop-color:rgb(255,203,3);stop-opacity:1"/><stop offset="1" style="stop-color:rgb(153,77,17);stop-opacity:1"/></linearGradient>
        <linearGradient id="_Linear9" x1="0" y1="0" x2="1" y2="0" gradientUnits="userSpaceOnUse" gradientTransform="matrix(1,0,0,-1,0,1.44813e-05)"><stop offset="0" style="stop-color:rgb(149,84,35);stop-opacity:1"/><stop offset="0.59" style="stop-color:rgb(237,215,12);stop-opacity:1"/><stop offset="0.61" style="stop-color:rgb(245,229,3);stop-opacity:1"/><stop offset="1" style="stop-color:rgb(245,229,3);stop-opacity:1"/></linearGradient>
        <linearGradient id="_Linear10" x1="0" y1="0" x2="1" y2="0" gradientUnits="userSpaceOnUse" gradientTransform="matrix(1,-5.55112e-17,-5.55112e-17,-1,0,4.54079e-07)"><stop offset="0" style="stop-color:rgb(153,77,17);stop-opacity:1"/><stop offset="0.46" style="stop-color:rgb(255,203,3);stop-opacity:1"/><stop offset="1" style="stop-color:rgb(153,77,17);stop-opacity:1"/></linearGradient>
        <linearGradient id="_Linear11" x1="0" y1="0" x2="1" y2="0" gradientUnits="userSpaceOnUse" gradientTransform="matrix(1,5.55112e-17,5.55112e-17,-1,0,0.0241194)"><stop offset="0" style="stop-color:rgb(153,77,17);stop-opacity:1"/><stop offset="0.46" style="stop-color:rgb(255,203,3);stop-opacity:1"/><stop offset="1" style="stop-color:rgb(153,77,17);stop-opacity:1"/></linearGradient>
        <linearGradient id="_Linear12" x1="0" y1="0" x2="1" y2="0" gradientUnits="userSpaceOnUse" gradientTransform="matrix(1,0,0,-1,0,0.0222305)"><stop offset="0" style="stop-color:rgb(153,77,17);stop-opacity:1"/><stop offset="0.46" style="stop-color:rgb(255,203,3);stop-opacity:1"/><stop offset="1" style="stop-color:rgb(153,77,17);stop-opacity:1"/></linearGradient>
        <linearGradient id="_Linear13" x1="0" y1="0" x2="1" y2="0" gradientUnits="userSpaceOnUse" gradientTransform="matrix(1,0,0,-1,0,-0.0163467)"><stop offset="0" style="stop-color:rgb(153,77,17);stop-opacity:1"/><stop offset="0.46" style="stop-color:rgb(255,203,3);stop-opacity:1"/><stop offset="1" style="stop-color:rgb(153,77,17);stop-opacity:1"/></linearGradient>
        <linearGradient id="_Linear14" x1="0" y1="0" x2="1" y2="0" gradientUnits="userSpaceOnUse" gradientTransform="matrix(1,0,0,-1,0,-4.93014e-06)"><stop offset="0" style="stop-color:rgb(0,73,129);stop-opacity:1"/><stop offset="1" style="stop-color:rgb(0,174,239);stop-opacity:1"/></linearGradient>
        <linearGradient id="_Linear15" x1="0" y1="0" x2="1" y2="0" gradientUnits="userSpaceOnUse" gradientTransform="matrix(0,1,1,0,0.0910333,-0.0910333)"><stop offset="0" style="stop-color:rgb(0,73,129);stop-opacity:1"/><stop offset="1" style="stop-color:rgb(0,174,239);stop-opacity:1"/></linearGradient>
        <linearGradient id="_Linear16" x1="0" y1="0" x2="1" y2="0" gradientUnits="userSpaceOnUse" gradientTransform="matrix(1,0,0,-1,0,-9.00155e-06)"><stop offset="0" style="stop-color:rgb(0,73,129);stop-opacity:1"/><stop offset="1" style="stop-color:rgb(0,174,239);stop-opacity:1"/></linearGradient>
        <linearGradient id="_Linear17" x1="0" y1="0" x2="1" y2="0" gradientUnits="userSpaceOnUse" gradientTransform="matrix(1,0,0,-1,0,2.4637e-06)"><stop offset="0" style="stop-color:rgb(0,73,129);stop-opacity:1"/><stop offset="1" style="stop-color:rgb(0,174,239);stop-opacity:1"/></linearGradient>
        <linearGradient id="_Linear18" x1="0" y1="0" x2="1" y2="0" gradientUnits="userSpaceOnUse" gradientTransform="matrix(1,0,0,-1,0,2.4637e-06)"><stop offset="0" style="stop-color:rgb(0,73,129);stop-opacity:1"/><stop offset="1" style="stop-color:rgb(0,174,239);stop-opacity:1"/></linearGradient>
        <linearGradient id="_Linear19" x1="0" y1="0" x2="1" y2="0" gradientUnits="userSpaceOnUse" gradientTransform="matrix(1,0,0,-1,0,9.10855e-06)"><stop offset="0" style="stop-color:rgb(0,73,129);stop-opacity:1"/><stop offset="1" style="stop-color:rgb(0,174,239);stop-opacity:1"/></linearGradient>
    </defs>
</svg>
